<svg width="221" height="221" viewBox="0 0 221 221" fill="none" xmlns="http://www.w3.org/2000/svg">
<circle cx="110.5" cy="110.5" r="110.5" fill="#D9D9D9"/>
<path fill-rule="evenodd" clip-rule="evenodd" d="M43.655 43.829C42.161 45.48 42 50.603 42 96.638C42 139.075 42.238 147.943 43.419 149.559C44.775 151.415 46.567 151.512 84.419 151.783L124 152.066V160.565C124 165.648 124.571 170.431 125.421 172.466C127.883 178.358 130.485 179 151.903 179C163.437 179 171.842 178.573 173.288 177.915C174.598 177.318 176.419 175.561 177.335 174.01C178.841 171.461 179 165.179 179 108.251C179 48.545 178.906 45.225 177.171 43.655C175.509 42.151 169.421 42 110.326 42C48.61 42 45.226 42.093 43.655 43.829ZM174.796 53.25L175.091 60H110.546H46V53.667C46 50.183 46.303 47.03 46.674 46.659C47.045 46.289 75.957 46.101 110.924 46.243L174.5 46.5L174.796 53.25ZM51.667 51.667C50.052 53.282 51.169 55 53.833 55C57.161 55 58.063 54.329 57.324 52.402C56.775 50.97 52.871 50.463 51.667 51.667ZM60.482 52.03C60.093 52.659 60.223 53.623 60.772 54.172C62.228 55.628 66.5 54.754 66.5 53C66.5 51.186 61.501 50.38 60.482 52.03ZM69.482 52.03C69.093 52.659 69.223 53.623 69.772 54.172C71.228 55.628 75.5 54.754 75.5 53C75.5 51.186 70.501 50.38 69.482 52.03ZM85.507 51.989C85.163 52.545 85.16 53.45 85.5 54C85.896 54.641 101.201 55 128.132 55C167.608 55 170.126 54.894 169.81 53.25C169.496 51.622 166.574 51.482 127.802 51.239C100.519 51.068 85.916 51.327 85.507 51.989ZM174.777 79.368C175.038 93.324 174.946 94.182 173.277 93.368C172.3 92.89 162.434 92.5 151.354 92.5C123.186 92.5 124 91.534 124 124.98V147.023L85.25 146.762L46.5 146.5L46.238 106.502C46.094 84.503 46.194 65.937 46.46 65.244C46.843 64.247 60.186 64.039 110.721 64.243L174.5 64.5L174.777 79.368ZM51.667 78.667C51.3 79.033 51 91.414 51 106.18V133.026L85.25 132.763L119.5 132.5L119.767 106.623C119.956 88.37 119.699 80.342 118.895 79.373C117.971 78.26 111.557 78 85.044 78C67.053 78 52.033 78.3 51.667 78.667ZM115 103C115 114 114.857 123 114.681 123C114.506 123 111.737 119.175 108.529 114.5C105.321 109.825 102.131 106 101.442 106C100.752 106 98.539 108.294 96.525 111.098C94.511 113.902 92.59 115.923 92.256 115.59C91.923 115.256 88.456 109.925 84.552 103.742C80.647 97.559 76.808 92.5 76.019 92.5C75.23 92.5 70.703 98.703 65.958 106.284C61.214 113.865 56.807 120.593 56.166 121.234C55.278 122.122 55 117.704 55 102.7V83H85H115V103ZM89.655 89.829C87.458 92.256 87.55 97.283 89.829 99.345C92.256 101.542 97.283 101.45 99.345 99.171C101.542 96.744 101.45 91.717 99.171 89.655C96.744 87.458 91.717 87.55 89.655 89.829ZM96.334 93.427C97.096 95.414 94.269 97.669 92.825 96.225C91.444 94.844 92.478 92 94.362 92C95.145 92 96.032 92.642 96.334 93.427ZM172.927 99.635C174.067 101.084 175 103.109 175 104.135C175 105.901 173.779 106 152 106H129V103.5C129 102.125 129.9 100.1 131 99C132.859 97.141 134.333 97 151.927 97H170.855L172.927 99.635ZM90.157 121.25L95.014 129H76.061H57.108L65.658 115.25C70.361 107.688 74.671 100.932 75.236 100.238C76.006 99.294 77.4 100.801 80.783 106.238C83.268 110.232 87.486 116.987 90.157 121.25ZM147.507 99.989C146.314 101.919 149.148 104.12 152.415 103.801C154.733 103.575 155.5 103.003 155.5 101.5C155.5 99.92 154.732 99.436 151.843 99.195C149.831 99.028 147.88 99.385 147.507 99.989ZM174.767 135.75L175.034 161H152.017H129V135.481V109.962L151.75 110.231L174.5 110.5L174.767 135.75ZM107.701 121.292L113.148 129H106.673C100.313 129 100.16 128.937 98.099 125.443C96.944 123.486 96 121.455 96 120.929C96 119.312 100.445 113.009 101.377 113.306C101.859 113.459 104.705 117.053 107.701 121.292ZM155.194 118.266C153.637 120.142 144.873 151.198 145.462 152.75C145.723 153.438 146.607 154 147.426 154C148.403 154 149.595 151.677 150.889 147.25C158.781 120.266 158.952 119.527 157.626 118.2C156.561 117.133 156.125 117.145 155.194 118.266ZM136.419 130.082L130.565 135.997L135.999 141.499C138.987 144.524 141.983 147 142.657 147C145.588 147 144.925 144.499 140.908 140.407L136.584 136L140.792 131.712C145.219 127.201 145.886 125.554 143.636 124.691C142.847 124.388 139.803 126.662 136.419 130.082ZM159.333 125.574C158.942 126.593 160.189 128.636 162.869 131.367L167.009 135.585L163.005 139.495C158.762 143.638 157.769 147 160.788 147C162.938 147 172 138.054 172 135.931C172 134.434 162.107 124 160.687 124C160.275 124 159.665 124.708 159.333 125.574ZM175 168.045C175 169.17 173.895 171.195 172.545 172.545C170.122 174.969 169.863 175 152.18 175C135.575 175 134.078 174.849 131.635 172.927C130.081 171.705 129 169.859 129 168.427V166H152C174.504 166 175 166.044 175 168.045ZM147.5 169C146.354 170.854 148.095 172 152.059 172C155.333 172 156 171.662 156 170C156 168.338 155.333 168 152.059 168C149.891 168 147.84 168.45 147.5 169Z" fill="black"/>
</svg>
