<svg width="325" height="325" viewBox="0 0 325 325" fill="none" xmlns="http://www.w3.org/2000/svg">
<path d="M325 162.5C325 252.246 252.246 325 162.5 325C72.7537 325 0 252.246 0 162.5C0 72.7537 72.7537 0 162.5 0C252.246 0 325 72.7537 325 162.5Z" fill="black"/>
<path d="M44.8276 146.867V131.716H99.3418V146.867H80.4762V200.976H63.6932V146.867H44.8276Z" fill="white"/>
<path d="M215.85 157.688H198.577C198.455 156.11 198.128 154.679 197.597 153.394C197.087 152.108 196.372 151.004 195.454 150.079C194.555 149.132 193.463 148.411 192.177 147.915C190.89 147.396 189.43 147.137 187.797 147.137C184.939 147.137 182.519 147.904 180.539 149.437C178.579 150.97 177.088 153.168 176.067 156.031C175.067 158.895 174.567 162.333 174.567 166.346C174.567 170.585 175.077 174.135 176.098 176.999C177.139 179.839 178.64 181.981 180.6 183.424C182.56 184.845 184.918 185.555 187.675 185.555C189.247 185.555 190.655 185.341 191.901 184.912C193.146 184.461 194.229 183.819 195.147 182.985C196.066 182.15 196.811 181.147 197.383 179.975C197.975 178.78 198.373 177.438 198.577 175.95L215.85 176.086C215.646 179.017 214.901 182.004 213.615 185.048C212.328 188.069 210.501 190.864 208.133 193.434C205.785 195.982 202.875 198.034 199.404 199.589C195.933 201.145 191.901 201.923 187.307 201.923C181.549 201.923 176.384 200.559 171.81 197.831C167.257 195.103 163.654 191.09 160.999 185.792C158.366 180.493 157.049 174.011 157.049 166.346C157.049 158.635 158.396 152.142 161.091 146.867C163.786 141.568 167.421 137.567 171.994 134.861C176.568 132.133 181.672 130.769 187.307 130.769C191.268 130.769 194.912 131.367 198.24 132.561C201.569 133.756 204.488 135.504 207 137.803C209.511 140.08 211.532 142.887 213.063 146.224C214.595 149.561 215.524 153.382 215.85 157.688Z" fill="white"/>
<path d="M223.576 200.976V131.716H240.604V158.771H263.144V131.716H280.172V200.976H263.144V173.921H240.604V200.976H223.576Z" fill="white"/>
<path d="M151.531 200.976V131.716H106.327V146.867H134.503V158.771H108.655V173.921H134.503V185.825H106.45V200.976H151.531Z" fill="#0082CD"/>
</svg>
