<svg width="133" height="40" viewBox="0 0 133 40" fill="none" xmlns="http://www.w3.org/2000/svg">
<path d="M0 9.04943V0.53232H30.8075V9.04943H20.146V39.4677H10.6615V9.04943H0Z" fill="black"/>
<path d="M96.6498 15.1331H86.8883C86.8191 14.2459 86.6345 13.4411 86.3345 12.7186C86.046 11.9962 85.6422 11.3752 85.1229 10.8555C84.6153 10.3232 83.998 9.91762 83.271 9.63878C82.5441 9.34727 81.7191 9.20152 80.7961 9.20152C79.1807 9.20152 77.8134 9.63245 76.6942 10.4943C75.5865 11.3561 74.7442 12.5919 74.1673 14.2015C73.6019 15.8112 73.3192 17.744 73.3192 20C73.3192 22.3828 73.6077 24.379 74.1846 25.9886C74.773 27.5856 75.6211 28.7896 76.7288 29.6008C77.8365 30.3992 79.1691 30.7985 80.7268 30.7985C81.6153 30.7985 82.4114 30.6781 83.1153 30.4373C83.8191 30.1838 84.4306 29.8226 84.9499 29.3536C85.4691 28.8847 85.8903 28.3207 86.2133 27.6616C86.5479 26.9899 86.7729 26.2357 86.8883 25.3992L96.6498 25.4753C96.5344 27.1229 96.1132 28.8023 95.3863 30.5133C94.6594 32.2117 93.6267 33.7833 92.2883 35.2281C90.9614 36.6603 89.3172 37.8137 87.3556 38.6882C85.3941 39.5627 83.1153 40 80.5191 40C77.2653 40 74.3461 39.2332 71.7615 37.6996C69.1884 36.166 67.1519 33.91 65.6519 30.9316C64.1635 27.9531 63.4193 24.3093 63.4193 20C63.4193 15.6654 64.1808 12.0152 65.7038 9.04943C67.2269 6.07098 69.2807 3.82129 71.8653 2.30038C74.4499 0.766793 77.3345 0 80.5191 0C82.7576 0 84.8172 0.335868 86.6979 1.0076C88.5787 1.67934 90.2287 2.6616 91.6479 3.95437C93.0671 5.23447 94.2094 6.81242 95.0748 8.68821C95.9402 10.564 96.4652 12.7123 96.6498 15.1331Z" fill="black"/>
<path d="M101.016 39.4677V0.53232H110.639V15.7414H123.377V0.53232H133V39.4677H123.377V24.2586H110.639V39.4677H101.016Z" fill="black"/>
<path d="M60.3011 39.4677V0.53232H34.7551V9.04943H50.6781V15.7414H36.0705V24.2586H50.6781V30.9506H34.8244V39.4677H60.3011Z" fill="#0082CD"/>
</svg>
